<svg width="48" height="40" viewBox="0 0 48 40" fill="none" xmlns="http://www.w3.org/2000/svg">
<path d="M23.8522 21.2166C23.0382 21.5109 22.2653 21.886 21.5843 22.4317C20.185 23.553 19.3362 25.0204 18.9423 26.7705C18.7402 27.6688 18.6518 28.5793 18.6687 29.4995C18.7132 31.9019 20.3377 33.922 22.5945 34.4916C22.6796 34.5131 22.7637 34.5386 22.8458 34.5689C16.019 34.0897 10.5276 27.2042 12.4634 19.6802C13.4412 20.9374 14.6105 21.9432 15.9643 22.7618C16.0093 22.6454 15.9658 22.5491 15.96 22.4552C15.8744 21.1652 15.8836 19.8772 15.9904 18.5873C16.1055 17.1976 16.3167 15.827 16.6884 14.4842C17.2878 12.3199 18.2284 10.3381 19.7562 8.6755C20.8564 7.47845 22.1711 6.5973 23.6656 5.98606C23.7217 5.96308 23.7826 5.95037 23.8411 5.93325C23.8444 6.04914 23.8502 6.16503 23.8502 6.28092C23.8512 11.2593 23.8517 16.2382 23.8522 21.2166Z" fill="#6674CC"/>
<path d="M41.7408 10.7549C41.721 11.2654 41.7326 11.8855 41.779 12.5011C41.8689 13.6942 42.2353 14.7915 42.9221 15.7822C43.6041 16.7661 44.4988 17.4629 45.5791 17.9342C46.048 18.1386 46.5386 18.2702 47.0413 18.344C47.3782 18.3934 47.6136 18.6496 47.6102 18.9709C47.6029 19.6354 47.6252 20.3005 47.6015 20.9655C47.5889 21.3078 47.4347 21.5151 47.1123 21.5977C46.3409 21.7953 45.5748 22.0007 44.8754 22.4095C43.8096 23.0334 42.9971 23.894 42.431 24.9977C42.0598 25.7209 41.8718 26.492 41.7602 27.2989C41.6495 28.0949 41.6997 28.8876 41.6963 29.6807C41.6934 30.4005 41.6794 31.1213 41.5948 31.8323C41.444 33.0953 41.0303 34.2748 40.3705 35.3657C39.1708 37.3495 37.4893 38.726 35.32 39.4874C34.7612 39.6835 34.1817 39.8038 33.5925 39.8712C33.055 39.9328 32.8032 39.7094 32.8017 39.1583C32.8007 38.6634 32.8017 38.1686 32.8046 37.6737C32.8056 37.4635 32.8428 37.2547 32.9433 37.0742C33.0796 36.8307 33.3455 36.7803 33.5872 36.7222C35.7734 36.1965 37.3326 34.9178 38.1698 32.7926C38.5241 31.8934 38.6778 30.9467 38.6822 29.9761C38.687 28.9326 38.6904 27.8886 38.7097 26.8451C38.7204 26.2813 38.8765 25.738 39.0234 25.1996C39.2675 24.3053 39.6759 23.4828 40.1714 22.7033C40.646 21.9572 41.2299 21.3102 41.8911 20.7313C42.0183 20.6203 42.1449 20.5078 42.2633 20.388C42.5045 20.1435 42.5084 19.9596 42.2517 19.7166C41.8897 19.3738 41.5049 19.0565 41.1589 18.6946C40.2608 17.7563 39.6194 16.657 39.1597 15.4458C38.8252 14.5641 38.6532 13.6473 38.629 12.703C38.5985 11.5138 38.6077 10.3222 38.5338 9.13588C38.4593 7.94373 38.0731 6.84595 37.3795 5.85966C36.5399 4.66604 35.3905 3.93256 34.0439 3.47731C33.8298 3.40494 33.605 3.35262 33.3812 3.32181C33.0105 3.27096 32.794 3.06949 32.764 2.69884C32.706 1.98247 32.6963 1.26659 32.78 0.549247C32.8259 0.156589 33.1072 0.0607477 33.4238 0.0964439C35.1054 0.286171 36.6168 0.911098 37.9813 1.92722C39.5159 3.07047 40.5523 4.58096 41.2135 6.36332C41.5291 7.21465 41.6765 8.10803 41.7041 9.02439C41.7205 9.56521 41.7384 10.1055 41.7418 10.7544L41.7408 10.7549Z" fill="#868686"/>
<path d="M14.8625 1.6988C14.8456 1.96383 14.8838 2.31052 14.8161 2.65722C14.7373 3.06014 14.5705 3.2484 14.1698 3.30855C13.2872 3.44155 12.496 3.81221 11.7715 4.31489C10.624 5.11047 9.82064 6.18722 9.38949 7.52754C9.1425 8.29525 8.98589 9.08643 8.97961 9.89864C8.97284 10.8341 8.96608 11.77 8.97961 12.7054C8.98879 13.3284 8.86989 13.9318 8.73213 14.5294C8.51801 15.454 8.13036 16.3122 7.64266 17.1225C7.10179 18.0207 6.41543 18.7914 5.61355 19.4584C5.55458 19.5073 5.50044 19.562 5.44534 19.6158C5.13648 19.917 5.15194 20.1346 5.48352 20.4124C6.96645 21.6534 8.06462 23.1698 8.64755 25.0372C8.90179 25.8524 9.03471 26.691 9.04631 27.5536C9.0613 28.6963 9.08401 29.841 9.14057 30.9809C9.20244 32.2302 9.64905 33.3725 10.4258 34.3696C11.1769 35.3339 12.1156 36.0287 13.2587 36.4365C13.5642 36.5456 13.8779 36.636 14.193 36.7113C14.7421 36.8424 14.8954 36.9534 14.9253 37.5187C14.9596 38.1636 15.007 38.8155 14.8804 39.4594C14.8142 39.7959 14.6904 39.9074 14.353 39.9103C13.802 39.9152 13.2655 39.8057 12.7391 39.6546C11.7454 39.3695 10.8299 38.9196 9.98208 38.3186C8.78675 37.4717 7.83068 36.4106 7.11774 35.1246C6.62762 34.241 6.29846 33.3031 6.11671 32.3026C5.96253 31.4523 5.96108 30.5995 5.95963 29.7437C5.95818 29.0019 5.97461 28.2587 5.90452 27.5198C5.7426 25.8079 5.08717 24.3355 3.79276 23.1835C2.97057 22.452 2.02562 21.9742 0.952578 21.7527C0.834157 21.7282 0.720086 21.6833 0.602148 21.6564C0.130879 21.5483 0.0419426 21.1732 0.027442 20.7747C0.00424107 20.1503 -0.0339438 19.5229 0.0617599 18.9004C0.114929 18.5547 0.292802 18.3704 0.634533 18.3552C1.58867 18.3132 2.4094 17.9127 3.19002 17.4056C4.21521 16.7396 4.9441 15.813 5.40909 14.6854C5.6498 14.1015 5.83927 13.4947 5.91419 12.8551C6.0389 11.792 5.96736 10.726 6.00119 9.66197C6.02488 8.92311 6.03986 8.17936 6.20903 7.45713C6.48841 6.26742 6.96306 5.15986 7.64991 4.14716C8.8027 2.44744 10.3673 1.29392 12.2703 0.604445C12.8749 0.385378 13.4994 0.221078 14.152 0.191739C14.6687 0.168756 14.832 0.394669 14.8601 0.874366C14.8746 1.12082 14.8625 1.36922 14.8625 1.69782V1.6988Z" fill="#868686"/>
<path d="M23.8507 21.2166C23.8503 16.2382 23.8498 11.2594 23.8488 6.28097C23.8488 6.16508 23.8425 6.04919 23.8396 5.93329C24.3501 5.68147 24.9045 5.56753 25.4458 5.41399C25.5826 5.37536 25.5357 5.49712 25.5207 5.56313C25.4241 5.98268 25.3187 6.40028 25.2264 6.8213C24.904 8.29266 24.7691 9.78359 24.8721 11.2853C24.9494 12.4139 25.1916 13.5116 25.7571 14.5111C26.1211 15.1546 26.586 15.7013 27.2579 16.0265C28.2391 16.5018 29.1555 16.3277 30.0091 15.6955C30.6341 15.2329 31.0648 14.6089 31.4138 13.9204C31.4795 13.7908 31.5394 13.6583 31.6206 13.4887C32.7304 14.962 33.439 16.5766 33.643 18.3898C33.8484 20.2162 33.5043 21.9516 32.6067 23.6117C33.9248 23.6806 34.7822 22.9276 35.6276 22.0313C35.6276 22.4851 35.646 22.8841 35.6242 23.2806C35.5677 24.3153 35.3995 25.3319 35.0824 26.3202C34.3685 28.5446 33.1205 30.4086 31.3495 31.9039C30.2687 32.8164 29.0526 33.5049 27.7209 33.9763C27.6929 33.9861 27.662 33.9875 27.632 33.9929C27.5813 33.9768 27.5392 33.9846 27.5165 34.0394C27.4203 34.0848 27.3222 34.1244 27.2139 34.1288C27.1719 34.1191 27.1342 34.123 27.1081 34.1636C26.8466 34.255 26.5802 34.3269 26.3062 34.3665C26.2627 34.3523 26.2226 34.3513 26.1916 34.3924C26.151 34.3978 26.1099 34.4027 26.0693 34.4081C26.0123 34.3963 25.9557 34.387 25.9147 34.4452C25.8745 34.4482 25.8339 34.4516 25.7933 34.4545C25.7349 34.4428 25.6773 34.434 25.6382 34.4961C25.5705 34.4995 25.5033 34.5034 25.4357 34.5068C25.3743 34.4912 25.3114 34.4711 25.2694 34.5435C25.2133 34.5743 25.1529 34.5763 25.0915 34.5665C25.0915 34.544 25.091 34.5215 25.0905 34.499C25.9533 34.2726 26.7223 33.8658 27.372 33.2472C28.2116 32.4477 28.751 31.478 28.9429 30.3201C29.2155 28.6786 28.8008 27.2287 27.7533 25.9549C27.7093 25.9016 27.6644 25.8483 27.6156 25.7999C27.3802 25.5647 27.256 25.5603 27.0167 25.7955C26.7504 26.0571 26.4633 26.2654 26.0829 26.3319C25.6237 26.4126 25.2389 26.2591 24.9049 25.9701C24.3206 25.4645 24.0513 24.7877 23.9431 24.0366C23.813 23.1359 23.9972 22.2953 24.4255 21.5017C24.4743 21.4107 24.5473 21.3081 24.4574 21.2034C24.3684 21.1002 24.2558 21.1227 24.1398 21.1575C24.046 21.1853 23.9479 21.198 23.8517 21.2171L23.8507 21.2166Z" fill="#4E5DC0"/>
<path d="M25.0901 34.4987C25.0901 34.5212 25.0906 34.5437 25.091 34.5662C24.8735 34.6048 24.6555 34.6435 24.3776 34.6043C24.657 34.6063 24.8706 34.5359 25.0901 34.4987Z" fill="#FE6536"/>
<path d="M25.9144 34.445C25.9555 34.3873 26.0118 34.3966 26.0694 34.4078C26.0273 34.4601 25.9749 34.4694 25.9144 34.445Z" fill="#FE6536"/>
<path d="M25.6362 34.4963C25.6755 34.4342 25.7331 34.443 25.7918 34.4547C25.7482 34.4992 25.6997 34.5266 25.6362 34.4963Z" fill="#FE6536"/>
<path d="M25.2676 34.5436C25.3103 34.4712 25.3728 34.4913 25.4343 34.5069C25.3854 34.55 25.3311 34.569 25.2676 34.5436Z" fill="#FE6536"/>
<path d="M27.5164 34.0391C27.539 33.9839 27.5805 33.9765 27.6317 33.9927C27.5998 34.025 27.567 34.0543 27.5164 34.0391Z" fill="#FE6536"/>
<path d="M27.107 34.1641C27.1333 34.1233 27.1713 34.1193 27.2137 34.1292C27.1893 34.176 27.1533 34.1858 27.107 34.1641Z" fill="#FE6536"/>
<path d="M26.1916 34.3923C26.2225 34.3512 26.2626 34.3522 26.306 34.3664C26.2751 34.408 26.237 34.4158 26.1916 34.3923Z" fill="#FE6536"/>
</svg>
